<svg width="1688" height="430" viewBox="0 0 1688 430" fill="none" xmlns="http://www.w3.org/2000/svg">
<g clip-path="url(#clip0_434_8)">
<path d="M547.24 186.72C548.92 186.72 550.72 186.84 552.64 187.08C554.56 187.2 556.24 187.44 557.68 187.8L555.88 202.38C554.44 202.02 552.82 201.72 551.02 201.48C549.34 201.24 547.72 201.12 546.16 201.12C542.68 201.12 539.38 201.9 536.26 203.46C533.14 205.02 530.32 207.24 527.8 210.12C525.4 212.88 523.48 216.24 522.04 220.2C520.6 224.16 519.88 228.6 519.88 233.52V285H504.22V188.52H517L518.8 206.16H519.52C521.44 202.56 523.72 199.32 526.36 196.44C529.12 193.44 532.24 191.1 535.72 189.42C539.2 187.62 543.04 186.72 547.24 186.72ZM651.033 188.52V285H638.433L636.093 272.22H635.373C633.453 275.58 630.933 278.34 627.813 280.5C624.813 282.66 621.513 284.22 617.913 285.18C614.313 286.26 610.533 286.8 606.572 286.8C599.373 286.8 593.313 285.6 588.393 283.2C583.473 280.68 579.753 276.84 577.233 271.68C574.833 266.52 573.633 259.86 573.633 251.7V188.52H589.473V250.62C589.473 258.3 591.093 264.06 594.333 267.9C597.573 271.74 602.553 273.66 609.273 273.66C615.873 273.66 621.033 272.34 624.753 269.7C628.593 266.94 631.293 262.98 632.853 257.82C634.533 252.54 635.373 246.18 635.373 238.74V188.52H651.033ZM671.914 243.78V229.74H713.134V243.78H671.914ZM766.006 286.8C754.846 286.8 745.846 282.66 739.006 274.38C732.286 265.98 728.926 253.5 728.926 236.94C728.926 220.38 732.346 207.9 739.186 199.5C746.026 190.98 755.026 186.72 766.186 186.72C770.866 186.72 774.946 187.38 778.426 188.7C781.906 189.9 784.906 191.58 787.426 193.74C790.066 195.9 792.286 198.3 794.086 200.94H795.166C795.046 199.38 794.806 197.1 794.446 194.1C794.206 190.98 794.086 188.52 794.086 186.72V148.2H809.746V285H797.146L794.806 272.04H794.086C792.286 274.8 790.066 277.32 787.426 279.6C784.906 281.76 781.846 283.5 778.246 284.82C774.766 286.14 770.686 286.8 766.006 286.8ZM768.886 273.66C778.246 273.66 784.786 270.9 788.506 265.38C792.346 259.74 794.266 251.28 794.266 240V237.12C794.266 225.12 792.466 215.94 788.866 209.58C785.266 203.1 778.546 199.86 768.706 199.86C760.786 199.86 754.846 203.28 750.886 210.12C747.046 216.84 745.126 225.9 745.126 237.3C745.126 248.82 747.046 257.76 750.886 264.12C754.846 270.48 760.846 273.66 768.886 273.66ZM873.484 186.72C881.284 186.72 888.004 188.52 893.644 192.12C899.284 195.72 903.604 200.82 906.604 207.42C909.724 213.9 911.284 221.52 911.284 230.28V239.82H849.364C849.604 250.74 852.184 259.08 857.104 264.84C862.024 270.48 868.924 273.3 877.804 273.3C883.564 273.3 888.664 272.76 893.104 271.68C897.664 270.48 902.344 268.8 907.144 266.64V280.5C902.464 282.66 897.844 284.22 893.284 285.18C888.844 286.26 883.444 286.8 877.084 286.8C868.444 286.8 860.824 284.94 854.224 281.22C847.624 277.5 842.464 271.98 838.744 264.66C835.024 257.22 833.164 248.16 833.164 237.48C833.164 226.92 834.844 217.86 838.204 210.3C841.564 202.74 846.244 196.92 852.244 192.84C858.364 188.76 865.444 186.72 873.484 186.72ZM873.484 199.68C866.524 199.68 861.004 202.14 856.924 207.06C852.844 211.86 850.444 218.58 849.724 227.22H895.084C895.084 221.7 894.304 216.9 892.744 212.82C891.184 208.74 888.784 205.56 885.544 203.28C882.424 200.88 878.404 199.68 873.484 199.68ZM950.825 285L916.445 188.52H933.185L952.265 245.4C953.225 248.04 954.185 250.98 955.145 254.22C956.105 257.46 956.945 260.58 957.665 263.58C958.505 266.46 959.045 268.92 959.285 270.96H960.005C960.365 268.92 960.965 266.4 961.805 263.4C962.645 260.4 963.545 257.28 964.505 254.04C965.585 250.8 966.545 247.92 967.385 245.4L986.465 188.52H1003.21L968.645 285H950.825ZM1052.78 186.72C1060.58 186.72 1067.3 188.52 1072.94 192.12C1078.58 195.72 1082.9 200.82 1085.9 207.42C1089.02 213.9 1090.58 221.52 1090.58 230.28V239.82H1028.66C1028.9 250.74 1031.48 259.08 1036.4 264.84C1041.32 270.48 1048.22 273.3 1057.1 273.3C1062.86 273.3 1067.96 272.76 1072.4 271.68C1076.96 270.48 1081.64 268.8 1086.44 266.64V280.5C1081.76 282.66 1077.14 284.22 1072.58 285.18C1068.14 286.26 1062.74 286.8 1056.38 286.8C1047.74 286.8 1040.12 284.94 1033.52 281.22C1026.92 277.5 1021.76 271.98 1018.04 264.66C1014.32 257.22 1012.46 248.16 1012.46 237.48C1012.46 226.92 1014.14 217.86 1017.5 210.3C1020.86 202.74 1025.54 196.92 1031.54 192.84C1037.66 188.76 1044.74 186.72 1052.78 186.72ZM1052.78 199.68C1045.82 199.68 1040.3 202.14 1036.22 207.06C1032.14 211.86 1029.74 218.58 1029.02 227.22H1074.38C1074.38 221.7 1073.6 216.9 1072.04 212.82C1070.48 208.74 1068.08 205.56 1064.84 203.28C1061.72 200.88 1057.7 199.68 1052.78 199.68ZM1128.96 285H1113.3V148.2H1128.96V285ZM1236.8 236.58C1236.8 244.62 1235.78 251.76 1233.74 258C1231.82 264.12 1229 269.34 1225.28 273.66C1221.56 277.98 1217.06 281.28 1211.78 283.56C1206.5 285.72 1200.62 286.8 1194.14 286.8C1188.14 286.8 1182.56 285.72 1177.4 283.56C1172.36 281.28 1167.92 277.98 1164.08 273.66C1160.36 269.34 1157.48 264.12 1155.44 258C1153.4 251.76 1152.38 244.62 1152.38 236.58C1152.38 225.9 1154.06 216.9 1157.42 209.58C1160.9 202.14 1165.82 196.5 1172.18 192.66C1178.54 188.7 1186.04 186.72 1194.68 186.72C1202.96 186.72 1210.22 188.7 1216.46 192.66C1222.82 196.5 1227.8 202.14 1231.4 209.58C1235 216.9 1236.8 225.9 1236.8 236.58ZM1168.58 236.58C1168.58 244.14 1169.48 250.74 1171.28 256.38C1173.08 261.9 1175.9 266.16 1179.74 269.16C1183.58 272.16 1188.5 273.66 1194.5 273.66C1200.5 273.66 1205.42 272.16 1209.26 269.16C1213.1 266.16 1215.92 261.9 1217.72 256.38C1219.64 250.74 1220.6 244.14 1220.6 236.58C1220.6 228.9 1219.64 222.36 1217.72 216.96C1215.92 211.56 1213.1 207.42 1209.26 204.54C1205.42 201.54 1200.44 200.04 1194.32 200.04C1185.32 200.04 1178.78 203.28 1174.7 209.76C1170.62 216.24 1168.58 225.18 1168.58 236.58ZM1303.82 186.72C1314.98 186.72 1323.92 190.86 1330.64 199.14C1337.48 207.42 1340.9 219.9 1340.9 236.58C1340.9 247.5 1339.34 256.74 1336.22 264.3C1333.1 271.74 1328.72 277.38 1323.08 281.22C1317.56 284.94 1311.08 286.8 1303.64 286.8C1298.96 286.8 1294.82 286.14 1291.22 284.82C1287.74 283.5 1284.74 281.82 1282.22 279.78C1279.7 277.62 1277.54 275.28 1275.74 272.76H1274.66C1274.9 274.8 1275.14 277.38 1275.38 280.5C1275.62 283.62 1275.74 286.32 1275.74 288.6V328.2H1260.08V188.52H1272.86L1275.02 201.66H1275.74C1277.54 198.9 1279.7 196.38 1282.22 194.1C1284.74 191.82 1287.74 190.02 1291.22 188.7C1294.82 187.38 1299.02 186.72 1303.82 186.72ZM1300.76 200.04C1294.76 200.04 1289.9 201.3 1286.18 203.82C1282.58 206.22 1279.94 209.88 1278.26 214.8C1276.58 219.72 1275.74 225.96 1275.74 233.52V236.58C1275.74 244.5 1276.46 251.22 1277.9 256.74C1279.46 262.26 1282.1 266.46 1285.82 269.34C1289.54 272.22 1294.64 273.66 1301.12 273.66C1306.52 273.66 1310.96 272.04 1314.44 268.8C1317.92 265.56 1320.5 261.18 1322.18 255.66C1323.86 250.02 1324.7 243.6 1324.7 236.4C1324.7 225.36 1322.72 216.54 1318.76 209.94C1314.92 203.34 1308.92 200.04 1300.76 200.04ZM1399.6 186.72C1407.4 186.72 1414.12 188.52 1419.76 192.12C1425.4 195.72 1429.72 200.82 1432.72 207.42C1435.84 213.9 1437.4 221.52 1437.4 230.28V239.82H1375.48C1375.72 250.74 1378.3 259.08 1383.22 264.84C1388.14 270.48 1395.04 273.3 1403.92 273.3C1409.68 273.3 1414.78 272.76 1419.22 271.68C1423.78 270.48 1428.46 268.8 1433.26 266.64V280.5C1428.58 282.66 1423.96 284.22 1419.4 285.18C1414.96 286.26 1409.56 286.8 1403.2 286.8C1394.56 286.8 1386.94 284.94 1380.34 281.22C1373.74 277.5 1368.58 271.98 1364.86 264.66C1361.14 257.22 1359.28 248.16 1359.28 237.48C1359.28 226.92 1360.96 217.86 1364.32 210.3C1367.68 202.74 1372.36 196.92 1378.36 192.84C1384.48 188.76 1391.56 186.72 1399.6 186.72ZM1399.6 199.68C1392.64 199.68 1387.12 202.14 1383.04 207.06C1378.96 211.86 1376.56 218.58 1375.84 227.22H1421.2C1421.2 221.7 1420.42 216.9 1418.86 212.82C1417.3 208.74 1414.9 205.56 1411.66 203.28C1408.54 200.88 1404.52 199.68 1399.6 199.68ZM1503.14 186.72C1504.82 186.72 1506.62 186.84 1508.54 187.08C1510.46 187.2 1512.14 187.44 1513.58 187.8L1511.78 202.38C1510.34 202.02 1508.72 201.72 1506.92 201.48C1505.24 201.24 1503.62 201.12 1502.06 201.12C1498.58 201.12 1495.28 201.9 1492.16 203.46C1489.04 205.02 1486.22 207.24 1483.7 210.12C1481.3 212.88 1479.38 216.24 1477.94 220.2C1476.5 224.16 1475.78 228.6 1475.78 233.52V285H1460.12V188.52H1472.9L1474.7 206.16H1475.42C1477.34 202.56 1479.62 199.32 1482.26 196.44C1485.02 193.44 1488.14 191.1 1491.62 189.42C1495.1 187.62 1498.94 186.72 1503.14 186.72Z" fill="white"/>
<g clip-path="url(#clip1_434_8)">
<rect x="69" y="65" width="300" height="300" rx="70" fill="#3932FF"/>
<path d="M212.584 150.2C225.518 150.2 236.184 151.8 244.584 155C252.984 158.067 259.251 162.8 263.384 169.2C267.518 175.467 269.584 183.4 269.584 193C269.584 199.533 268.318 205.267 265.784 210.2C263.384 215 260.118 219.133 255.984 222.6C251.984 225.933 247.651 228.667 242.984 230.8L284.984 293H251.384L217.384 238.2H201.184V293H170.984V150.2H212.584ZM210.384 175H201.184V213.6H210.984C217.651 213.6 223.051 212.867 227.184 211.4C231.318 209.933 234.318 207.733 236.184 204.8C238.051 201.733 238.984 198.067 238.984 193.8C238.984 189.267 237.918 185.667 235.784 183C233.784 180.2 230.651 178.2 226.384 177C222.251 175.667 216.918 175 210.384 175Z" fill="white"/>
</g>
</g>
<defs>
<clipPath id="clip0_434_8">
<rect width="1688" height="430" fill="white"/>
</clipPath>
<clipPath id="clip1_434_8">
<rect x="69" y="65" width="300" height="300" rx="70" fill="white"/>
</clipPath>
</defs>
</svg>
